<svg xmlns="http://www.w3.org/2000/svg" width="150" height="50" viewBox="0,0,150,50"><path d="M7 37 C80 4,59 5,138 4" stroke="#666" fill="none"/><path d="M15 15 C61 7,78 6,139 46" stroke="#222" fill="none"/><path fill="#222" d="M86.04 41.16L86.04 41.16L84.27 41.10L84.23 41.07Q80.90 41.12 79.95 38.99L79.94 38.98L79.97 39.01Q81.21 38.04 82.65 36.94L82.65 36.93L82.61 36.90Q83.09 38.97 85.94 38.82L85.95 38.82L85.99 38.87Q86.78 38.82 87.81 38.59L87.75 38.53L87.85 38.63Q88.72 38.06 88.65 37.11L88.65 37.11L88.71 37.17Q88.51 35.95 86.73 35.26L86.82 35.36L82.97 33.79L82.93 33.75Q80.71 32.52 80.37 28.98L80.25 28.86L80.34 28.95Q80.10 26.77 82.27 26.20L82.31 26.24L82.32 26.24Q83.25 26.00 86.22 26.00L86.26 26.04L86.28 26.06Q91.07 25.98 91.99 28.49L92.06 28.56L92.01 28.51Q91.41 29.10 90.69 29.55L90.76 29.62L89.21 30.44L89.26 30.49Q88.75 28.57 85.52 28.34L85.51 28.34L85.43 28.26Q85.03 28.46 84.00 28.88L83.89 28.77L83.90 28.78Q83.39 29.18 83.39 30.29L83.41 30.31L83.31 30.20Q83.70 31.32 85.53 32.01L85.58 32.06L85.58 32.06Q86.50 32.30 89.17 33.40L89.31 33.54L89.20 33.43Q91.13 34.37 91.32 36.93L91.23 36.84L91.23 36.83Q91.45 37.62 91.37 38.61L91.28 38.52L91.22 38.46Q91.17 39.32 90.60 39.97L90.75 40.12L90.70 40.08Q89.12 41.20 86.08 41.20ZM90.87 43.82L90.75 43.70L90.71 43.66Q91.67 43.74 93.04 43.44L93.00 43.40L93.14 43.54Q94.04 42.68 93.84 41.47L94.02 41.64L93.92 41.54Q93.82 40.94 93.51 39.34L93.46 39.29L93.51 39.34Q93.08 36.52 91.29 35.30L91.25 35.25L91.32 35.32Q90.66 33.79 89.40 33.07L89.48 33.15L89.37 33.04Q88.12 32.62 85.64 31.67L85.73 31.75L85.69 31.71Q85.93 31.35 86.20 31.23L86.19 31.22L86.18 31.21Q86.74 30.71 87.39 30.67L87.34 30.62L87.35 30.63Q88.21 30.66 88.97 30.92L89.04 30.99L89.07 31.10L89.02 30.93L89.33 31.05L89.23 30.99L89.39 31.15Q90.30 31.45 90.50 32.71L90.49 32.71L90.56 32.78Q91.84 31.96 93.74 30.29L93.84 30.39L93.65 30.20Q93.44 29.52 92.45 28.34L92.47 28.37L92.41 28.31Q91.27 25.61 86.17 25.49L86.31 25.63L86.22 25.54Q83.12 25.57 81.14 26.14L81.05 26.04L81.02 26.01Q79.65 26.62 79.88 28.72L79.86 28.70L79.84 28.68Q79.96 29.94 80.87 32.04L81.01 32.17L80.95 32.11Q81.52 33.26 82.55 33.98L82.52 33.94L82.53 33.96Q83.14 35.37 84.44 36.06L84.41 36.03L84.43 36.05Q85.35 36.29 86.31 36.67L86.34 36.70L88.30 37.52L88.21 37.43Q87.91 38.58 85.97 38.46L86.04 38.53L86.05 38.54Q85.65 38.63 84.43 38.33L84.29 38.19L84.44 38.19L84.18 38.15L84.22 38.20Q83.39 37.86 82.74 36.38L82.71 36.34L82.72 36.36Q80.59 37.92 79.48 39.06L79.56 39.14L79.41 38.99Q79.74 39.92 80.77 40.72L80.78 40.74L80.52 40.77L80.65 40.91Q82.07 43.02 86.30 43.40L86.25 43.35L86.25 43.35Q87.63 43.59 90.87 43.82Z"/><path fill="#333" d="M50.10 47.04L50.11 47.05L50.17 47.11Q49.23 47.31 47.32 47.61L47.38 47.67L47.22 47.51Q48.63 45.46 49.66 44.16L49.62 44.13L49.61 44.12Q51.39 44.44 51.54 44.44L51.48 44.39L51.54 44.44Q51.74 44.41 52.27 44.30L52.33 44.36L52.25 44.28Q52.99 44.26 53.18 44.26L53.27 44.34L53.23 44.31Q55.71 43.97 55.63 41.80L55.78 41.95L55.76 41.93Q55.59 40.31 55.48 34.07L55.60 34.19L55.57 34.16Q55.44 30.53 55.51 26.38L55.49 26.35L56.97 26.23L56.93 26.19Q57.62 26.12 58.30 25.89L58.25 25.84L58.39 25.98Q58.10 30.34 58.14 34.72L58.23 34.81L58.12 34.70Q58.22 39.13 58.75 43.51L58.62 43.37L58.77 43.53Q58.87 43.85 58.87 44.12L58.80 44.06L58.80 44.06Q58.71 45.60 57.03 45.98L57.06 46.00L57.16 46.10Q53.93 46.38 50.09 47.03ZM56.88 22.83L54.77 19.73L54.86 19.82Q55.76 18.29 57.59 15.51L57.65 15.57L57.60 15.52Q58.23 16.38 59.57 18.21L59.69 18.33L56.82 22.77ZM59.99 49.54L60.02 49.57L59.84 49.39Q60.49 49.55 61.26 49.21L61.24 49.20L61.26 49.22Q61.54 48.47 61.54 48.02L61.52 47.99L61.58 48.05Q61.52 47.65 61.40 47.04L61.40 47.03L61.35 46.99Q60.06 40.63 60.06 32.71L60.15 32.80L60.05 32.70Q59.98 29.77 60.13 26.88L60.26 27.01L60.20 26.95Q59.74 27.21 58.60 27.52L58.63 27.55L58.46 27.38Q58.58 27.00 58.61 26.47L58.59 26.45L58.76 25.44L58.78 25.46Q57.08 26.12 55.29 26.16L55.26 26.12L55.25 26.12Q55.21 30.45 55.25 34.03L55.24 34.02L55.23 41.74L55.24 41.75Q55.39 43.81 53.22 43.92L53.13 43.83L53.26 43.96Q52.99 43.91 52.47 43.97L52.51 44.01L52.38 43.88Q52.04 44.10 51.77 44.10L51.71 44.04L51.76 44.10Q51.20 43.99 49.64 43.57L49.63 43.57L49.66 43.59Q49.15 44.15 48.04 45.82L48.00 45.78L46.65 48.28L46.62 48.24Q47.50 48.06 49.14 47.68L49.07 47.61L48.54 48.26L48.11 49.01L48.05 48.95Q50.46 48.92 51.79 49.00L51.66 48.87L51.75 48.95Q53.97 49.05 59.91 49.46ZM56.87 23.58L56.93 23.65L57.25 23.09L57.19 23.03Q57.61 23.52 58.56 25.12L58.53 25.10L58.55 25.12Q60.01 21.93 61.57 18.85L61.64 18.91L61.63 18.91Q60.66 17.33 59.71 16.03L59.62 15.94L59.67 15.99Q59.43 16.17 59.08 16.70L59.12 16.73L59.23 16.85Q58.72 16.11 57.73 14.81L57.66 14.74L57.66 14.74Q56.67 16.53 54.34 19.88L54.18 19.72L54.31 19.84Q55.22 21.06 56.94 23.65Z"/><path fill="#222" d="M26.99 19.76L26.84 19.61L26.96 19.73Q25.02 19.88 24.06 20.03L23.98 19.95L23.93 19.90Q22.38 20.22 21.16 20.75L21.10 20.69L21.01 20.60Q17.53 22.07 17.41 26.75L17.50 26.83L17.50 26.83Q17.45 29.53 18.10 32.46L18.10 32.46L18.01 32.36Q19.02 36.54 22.64 37.72L22.60 37.68L22.62 37.70Q24.54 38.29 25.99 38.14L25.83 37.98L26.25 37.95L26.34 38.03Q26.45 37.95 26.64 37.99L26.65 38.00L26.73 38.08Q26.81 38.01 26.96 37.97L27.10 38.10L26.98 37.99Q29.68 37.80 31.05 37.23L30.93 37.10L27.41 33.62L27.46 33.67Q27.84 33.41 28.45 32.80L28.33 32.68L29.31 31.83L29.36 31.88Q31.05 33.79 33.03 35.85L33.10 35.92L33.08 35.91Q35.43 34.11 35.70 28.74L35.64 28.68L35.76 28.80Q35.73 27.78 35.73 26.86L35.75 26.89L35.73 26.86Q35.72 21.18 30.65 20.08L30.61 20.03L30.78 20.20Q29.50 19.92 26.99 19.76ZM39.68 41.74L39.73 41.79L39.58 41.64Q39.13 42.22 37.95 43.09L37.97 43.12L33.45 39.32L33.49 39.36Q31.09 40.65 26.83 40.69L26.77 40.64L26.66 40.52Q20.26 40.78 17.44 38.54L17.36 38.45L17.42 38.52Q15.64 36.74 15.19 33.77L15.15 33.74L15.23 33.81Q14.96 31.95 14.58 28.37L14.48 28.26L14.58 28.37Q14.60 27.67 14.49 25.91L14.55 25.97L14.36 25.79Q14.31 24.33 14.35 23.46L14.28 23.39L14.41 23.52Q14.36 20.31 16.11 18.75L16.13 18.76L16.15 18.79Q17.70 17.48 20.90 16.98L20.91 17.00L20.90 16.99Q23.39 16.62 26.28 16.69L26.29 16.70L26.21 16.63Q33.74 16.76 36.86 19.12L36.87 19.13L36.97 19.23Q39.16 21.39 38.90 26.30L38.82 26.22L38.75 26.15Q38.53 29.78 38.34 31.11L38.36 31.13L38.39 31.16Q37.81 35.73 35.49 38.05L35.48 38.03L35.46 38.01Q36.97 39.30 39.72 41.78ZM34.75 17.40L34.76 17.40L34.84 17.49Q32.84 16.78 26.33 16.29L26.29 16.24L26.29 16.25Q24.92 16.28 22.14 16.40L22.22 16.48L22.16 16.42Q17.84 16.55 15.59 18.53L15.71 18.65L15.68 18.62Q14.07 20.13 14.07 23.29L14.00 23.22L14.04 23.26Q13.97 24.03 14.13 25.74L14.17 25.78L14.23 25.85Q14.22 27.40 14.22 28.28L14.23 28.28L14.27 28.32Q14.48 30.14 14.87 33.72L14.77 33.62L14.83 33.68Q15.25 36.61 16.85 38.67L16.80 38.62L16.72 38.54Q17.20 39.52 18.42 40.66L18.27 40.51L18.38 40.62Q21.15 42.67 26.33 42.93L26.19 42.79L26.26 42.86Q26.64 42.90 29.04 43.01L28.97 42.95L29.02 42.99Q33.82 43.15 36.10 42.09L36.01 41.99L35.99 41.97Q37.01 42.80 41.73 46.38L41.70 46.35L41.61 46.26Q42.36 45.87 43.66 44.88L43.59 44.81L43.49 44.72Q42.63 44.05 41.83 43.36L41.89 43.42L40.17 41.89L40.29 41.86L40.27 41.83Q39.79 41.47 38.57 40.44L38.63 40.50L38.46 40.33Q40.39 37.84 40.39 33.31L40.53 33.46L40.40 33.32Q40.36 32.87 40.40 32.03L40.51 32.14L40.55 32.18Q40.62 31.38 40.62 30.96L40.55 30.89L40.54 30.87Q40.61 25.43 39.89 23.07L39.85 23.03L39.76 22.94Q39.36 21.63 38.49 20.56L38.62 20.69L38.52 20.60Q37.65 18.39 34.72 17.37ZM28.71 21.94L28.81 22.04L28.89 22.12Q32.86 21.94 34.69 23.54L34.77 23.62L34.61 23.47Q35.33 24.83 35.45 26.16L35.48 26.20L35.36 26.08Q35.44 27.34 35.37 28.71L35.43 28.77L35.33 28.67Q35.07 33.71 33.13 35.42L33.16 35.45L33.17 35.46Q31.71 34.00 29.20 31.26L29.33 31.39L29.27 31.33Q28.45 32.04 26.89 33.60L27.03 33.73L26.89 33.60Q27.47 34.21 28.61 35.39L28.61 35.39L28.56 35.46L28.66 35.56Q29.07 35.93 30.10 37.00L30.18 37.08L30.12 37.02Q29.24 37.39 26.91 37.69L26.88 37.66L26.40 37.71L26.00 37.73L25.83 37.60L25.97 37.74Q22.38 37.61 20.40 35.97L20.41 35.99L20.43 36.01Q19.52 34.03 19.56 30.91L19.42 30.77L19.40 30.76Q19.59 22.07 28.77 22.00Z"/><path fill="#222" d="M115.57 29.27L115.54 29.24L115.41 29.11Q113.71 29.27 112.49 30.61L112.38 30.50L112.34 30.46Q111.17 31.84 111.02 33.74L111.09 33.82L111.09 33.81Q110.89 35.93 112.11 36.94L111.96 36.80L112.13 36.97Q113.27 37.90 115.40 37.82L115.50 37.92L115.37 37.79Q117.78 37.73 118.73 36.77L118.78 36.82L118.60 36.64Q119.77 35.33 119.65 33.50L119.57 33.42L119.67 33.52Q119.49 31.59 118.41 30.39L118.49 30.47L118.50 30.49Q117.28 29.15 115.45 29.15ZM115.54 19.83L115.39 19.68L115.52 19.82Q113.99 19.58 112.65 20.07L112.68 20.10L112.78 20.20Q111.38 20.89 111.61 22.76L111.61 22.76L111.58 22.73Q112.09 26.48 115.44 26.48L115.58 26.62L115.50 26.53Q116.99 26.66 117.98 25.51L118.13 25.66L118.10 25.63Q119.05 24.45 119.09 22.89L119.04 22.85L119.04 22.85Q119.16 21.13 118.44 20.53L118.50 20.59L118.50 20.59Q116.70 19.62 115.40 19.70ZM115.25 40.37L115.26 40.38L112.21 40.37L112.09 40.25Q110.60 40.29 109.27 39.42L109.22 39.37L109.38 39.52Q107.86 38.23 108.01 35.38L108.09 35.46L107.98 35.35Q108.58 28.64 112.20 27.65L112.22 27.67L112.09 27.54Q109.95 26.77 108.61 21.40L108.50 21.29L108.51 21.30Q108.14 19.86 108.21 19.06L108.18 19.02L108.35 19.20Q108.54 16.95 112.23 16.91L112.25 16.93L112.24 16.91Q116.53 16.90 117.97 17.09L118.02 17.14L118.01 17.13Q121.77 17.58 122.23 19.60L122.31 19.68L122.14 19.51Q122.40 20.27 122.40 20.65L122.40 20.64L122.29 20.53Q122.37 21.30 122.18 21.91L122.07 21.80L122.20 21.92Q121.56 26.12 118.63 27.64L118.54 27.56L118.64 27.66Q122.18 28.49 122.67 33.78L122.58 33.69L122.65 33.76Q122.62 33.88 122.66 35.18L122.70 35.22L122.62 35.14Q122.72 37.90 121.12 38.97L121.12 38.96L121.05 38.90Q119.79 39.88 115.22 40.34ZM117.53 42.69L117.56 42.72L120.80 42.69L120.77 42.65Q122.53 42.78 124.05 42.05L123.97 41.97L124.07 42.08Q125.17 41.30 125.24 39.44L125.32 39.52L125.19 39.39Q125.25 38.30 124.87 36.36L124.97 36.47L124.83 36.33Q124.02 31.78 121.92 29.91L122.00 29.99L121.70 29.50L121.50 29.22L121.40 29.01L121.36 28.97Q123.04 27.64 123.95 23.49L123.85 23.39L123.85 23.38Q123.89 23.04 123.96 22.21L124.02 22.26L123.92 22.17Q123.99 21.47 123.92 20.87L124.09 21.04L124.06 21.01Q123.96 19.61 122.78 19.12L122.59 18.93L122.72 19.02L122.61 18.99L122.62 19.00Q122.18 18.11 121.00 17.31L121.12 17.42L121.14 17.40L121.03 17.29Q119.22 16.78 115.15 16.59L115.12 16.56L115.07 16.51Q113.60 16.49 112.23 16.60L112.04 16.42L112.13 16.50Q111.38 16.59 110.08 16.74L109.95 16.60L110.08 16.73Q108.20 17.18 107.97 18.82L107.81 18.65L107.79 18.64Q107.90 19.28 107.94 20.08L107.85 19.99L107.92 20.06Q107.97 20.53 108.55 22.89L108.58 22.93L108.52 22.87Q109.30 26.09 111.06 27.42L111.14 27.51L111.09 27.46L111.14 27.50Q108.44 28.88 107.91 34.06L107.78 33.92L107.88 34.03Q107.76 36.31 107.76 37.22L107.64 37.10L107.76 37.22Q107.71 38.89 108.89 39.80L108.86 39.77L108.94 39.85Q109.09 39.96 109.35 40.15L109.38 40.17L109.26 40.05Q110.28 42.33 117.40 42.56ZM117.07 31.49L117.18 31.60L117.04 31.47Q117.97 31.40 118.84 31.86L118.94 31.96L118.99 32.00Q119.25 32.87 119.21 33.41L119.32 33.52L119.28 33.48Q119.21 33.68 119.21 33.98L119.36 34.13L119.36 34.13Q119.37 36.50 117.08 37.33L116.94 37.18L116.96 37.21Q116.24 37.60 115.45 37.48L115.34 37.37L115.42 37.46Q114.31 37.56 113.17 37.11L113.15 37.09L113.22 37.16Q112.88 36.44 112.96 35.45L113.02 35.51L112.93 35.42Q113.11 33.86 114.31 32.64L114.41 32.74L114.38 32.71Q115.45 31.36 117.05 31.47ZM117.37 22.08L117.34 22.05L117.35 22.07Q118.06 21.87 118.60 22.02L118.62 22.04L118.69 22.91L118.77 22.99Q118.69 24.32 117.78 25.33L117.78 25.34L117.69 25.24Q116.77 26.24 115.40 26.05L115.41 26.06L115.54 26.19Q114.41 26.06 113.99 25.83L114.18 26.01L114.11 25.94Q114.08 25.69 113.97 25.00L113.83 24.87L113.86 24.89Q113.63 23.52 114.85 22.69L114.89 22.73L114.89 22.73Q115.85 21.93 117.26 21.97Z"/></svg>