<svg xmlns="http://www.w3.org/2000/svg" width="150" height="50" viewBox="0,0,150,50"><path fill="#444" d="M60.52 30.83L60.50 30.81L60.63 30.94Q60.65 29.43 59.83 28.52L59.92 28.61L59.89 28.58Q59.07 27.67 57.62 27.71L57.53 27.61L57.67 27.75Q55.28 27.76 54.45 29.90L54.43 29.88L54.37 29.82Q54.21 30.73 54.18 31.42L54.21 31.45L54.03 31.27Q53.91 36.22 53.00 40.55L52.88 40.44L52.99 40.54Q51.30 41.07 49.44 42.06L49.36 41.98L49.38 42.00Q51.74 35.11 51.47 27.80L51.46 27.79L51.51 27.84Q51.21 20.46 48.66 13.64L48.63 13.61L48.59 13.57Q50.30 14.82 52.32 15.51L52.34 15.53L52.34 15.53Q53.89 21.42 54.08 27.28L54.08 27.29L54.06 27.27Q55.53 25.27 58.23 25.35L58.21 25.33L58.18 25.29Q63.15 25.28 63.27 30.65L63.39 30.77L63.39 30.77Q63.53 36.47 64.90 41.11L64.80 41.02L64.93 41.14Q63.06 40.30 61.30 40.11L61.28 40.08L61.28 40.08Q60.62 36.68 60.51 30.82ZM60.98 40.43L60.93 40.37L60.89 40.34Q61.96 40.49 63.06 40.76L63.12 40.82L63.05 40.74Q63.14 40.96 63.68 42.94L63.64 42.90L63.67 42.93Q66.59 43.83 68.61 45.28L68.62 45.29L68.53 45.20Q65.90 39.48 65.36 33.16L65.33 33.12L65.41 33.21Q65.07 29.49 63.67 27.92L63.65 27.91L63.66 27.92Q63.70 27.88 63.05 27.42L63.06 27.43L63.04 27.42Q62.66 26.77 62.02 26.01L62.21 26.20L62.09 26.01L62.18 26.10Q61.37 25.29 58.25 25.02L58.22 24.99L58.06 24.84Q57.50 25.00 56.10 25.34L56.00 25.24L56.09 25.33Q55.72 20.32 55.37 17.80L55.36 17.79L55.38 17.81Q54.65 17.73 53.17 17.42L53.23 17.48L53.16 17.42Q53.06 16.75 52.79 15.26L52.78 15.25L52.75 15.22Q49.77 14.22 47.91 12.66L47.88 12.64L47.86 12.61Q50.82 19.76 51.09 27.57L51.10 27.58L51.09 27.57Q51.50 35.48 48.95 42.82L48.98 42.86L48.84 42.71Q49.87 42.22 51.01 41.72L50.95 41.66L50.27 43.99L50.32 44.05Q53.45 42.72 55.43 42.53L55.29 42.39L55.43 42.53Q55.86 36.98 56.05 33.02L56.15 33.12L56.13 33.10Q56.20 31.24 58.15 30.13L58.14 30.13L58.06 30.05Q58.72 29.94 59.25 29.98L59.19 29.92L59.14 29.87Q59.37 29.95 59.71 29.99L59.58 29.85L60.14 30.07L60.11 30.04Q60.15 30.46 60.26 30.91L60.34 30.99L60.28 30.94Q60.36 36.88 60.86 40.30Z"/><path fill="#444" d="M23.89 19.31L24.03 19.45L23.97 19.38Q24.83 23.64 24.98 27.22L24.99 27.22L24.85 27.08Q26.03 27.24 27.10 27.24L27.07 27.21L29.23 27.17L29.32 27.25Q30.32 27.18 31.19 25.78L31.27 25.85L31.30 25.88Q31.86 24.54 31.97 23.36L32.14 23.52L32.01 23.39Q32.47 20.47 28.25 19.97L28.14 19.87L28.24 19.96Q26.59 19.96 23.97 19.39ZM25.07 30.04L24.88 29.86L24.89 29.86Q24.87 36.13 23.73 40.54L23.76 40.57L23.76 40.57Q22.40 41.08 20.08 42.15L20.00 42.07L20.01 42.08Q22.27 35.31 22.00 28.04L22.17 28.21L22.06 28.10Q21.87 20.83 19.09 14.39L19.01 14.31L18.90 14.21Q23.16 17.09 29.40 17.09L29.47 17.16L29.43 17.13Q35.36 17.00 35.52 20.47L35.58 20.53L35.50 20.45Q35.66 22.97 34.67 25.64L34.77 25.73L34.74 25.70Q34.35 26.84 33.40 28.06L33.35 28.01L33.38 28.04Q31.94 29.52 29.39 29.79L29.51 29.92L29.50 29.90Q27.14 29.83 24.89 29.87ZM31.13 32.23L31.02 32.11L31.05 32.14Q35.25 32.42 36.51 27.63L36.49 27.60L36.43 27.54Q37.41 23.92 37.26 21.90L37.23 21.87L37.25 21.90Q37.21 20.44 36.44 19.45L36.47 19.48L36.45 19.46Q36.09 19.10 35.59 18.87L35.60 18.88L35.59 18.86Q35.51 18.63 34.90 17.87L35.08 18.05L34.98 17.95Q33.40 16.60 29.44 16.60L29.48 16.64L29.49 16.65Q22.62 16.67 18.39 13.51L18.35 13.46L18.35 13.46Q21.58 20.62 21.85 28.08L21.68 27.91L21.87 28.10Q22.06 35.67 19.39 42.76L19.44 42.81L19.41 42.78Q20.44 42.09 21.43 41.71L21.57 41.85L21.00 42.80L21.16 42.96Q20.97 43.54 20.71 44.11L20.67 44.07L20.62 44.02Q23.03 42.96 25.92 42.43L25.92 42.43L25.99 42.50Q26.83 36.99 26.91 32.26L26.97 32.32L26.78 32.14Q27.96 32.14 28.95 32.14L28.92 32.10L28.88 32.07Q30.25 32.10 31.05 32.14ZM30.14 22.25L30.17 22.28L30.19 22.30Q30.73 22.34 31.72 22.57L31.62 22.47L31.69 22.54Q31.72 22.68 31.76 22.99L31.88 23.11L31.83 23.06Q31.85 23.31 31.78 23.58L31.78 23.58L31.79 23.60Q31.59 24.73 30.87 25.60L30.85 25.58L30.86 25.59Q30.38 26.75 29.36 26.94L29.30 26.89L29.38 26.97Q28.49 26.81 26.86 26.81L26.87 26.82L26.82 26.77Q26.83 24.54 26.60 22.17L26.69 22.26L28.43 22.32L28.42 22.32Q29.37 22.43 30.25 22.35Z"/><path fill="#222" d="M113.51 26.92L113.33 26.74L113.43 26.85Q115.28 27.05 117.10 27.05L117.05 27.00L116.98 26.93Q118.84 27.00 120.67 26.85L120.74 26.93L120.71 26.89Q120.43 27.38 120.43 28.10L120.52 28.19L120.51 29.51L120.59 29.59Q118.17 29.53 113.41 29.64L113.50 29.73L113.39 29.62Q113.32 35.49 112.18 40.48L112.32 40.62L112.26 40.56Q109.99 41.19 108.51 41.99L108.60 42.08L108.67 42.14Q110.83 35.17 110.57 28.05L110.71 28.20L110.54 28.03Q110.46 21.05 107.79 14.39L107.72 14.32L107.68 14.28Q111.43 16.89 116.19 17.12L116.05 16.98L116.24 17.17Q120.86 17.30 125.01 15.55L124.85 15.38L125.03 15.57Q124.74 16.37 124.51 17.17L124.37 17.04L123.98 18.74L123.94 18.70Q121.22 19.79 118.25 19.94L118.23 19.92L118.31 19.99Q115.35 20.12 112.49 19.40L112.48 19.38L112.59 19.49Q113.19 22.80 113.38 26.79ZM125.52 14.72L125.69 14.89L125.58 14.78Q121.01 16.95 116.14 16.65L116.17 16.68L116.09 16.60Q110.88 16.42 107.15 13.56L107.15 13.56L107.02 13.43Q110.03 20.52 110.34 28.13L110.24 28.03L110.28 28.07Q110.66 36.07 108.15 42.84L107.99 42.68L107.99 42.68Q108.72 42.35 110.09 41.70L110.11 41.72L110.01 41.62Q109.98 42.54 109.41 44.06L109.35 44.01L109.36 44.01Q111.59 42.86 114.49 42.37L114.63 42.51L114.57 42.45Q115.25 37.65 115.44 31.94L115.28 31.78L115.40 31.90Q117.12 31.79 118.94 31.79L118.93 31.77L119.06 31.90Q120.73 31.79 122.56 31.98L122.53 31.95L122.52 31.94Q122.48 31.06 122.48 30.14L122.50 30.17L122.39 28.16L122.53 28.29Q121.67 28.31 120.83 28.31L120.82 28.30L120.81 28.28Q120.92 27.52 121.00 26.49L121.04 26.53L120.99 26.49Q119.50 26.56 118.10 26.56L118.14 26.61L118.13 26.59Q116.83 26.70 115.46 26.66L115.41 26.62L115.35 24.43L115.39 24.46Q115.28 23.29 115.17 22.23L115.17 22.22L115.15 22.20Q116.16 22.30 117.15 22.30L117.22 22.37L117.21 22.37Q121.81 22.20 125.43 20.30L125.45 20.32L125.58 20.46Q126.09 18.65 127.01 16.02L126.87 15.88L126.94 15.95Q125.65 16.79 124.85 17.13L124.87 17.16L124.83 17.12Q125.15 16.41 125.65 14.85Z"/><path d="M9 4 C82 16,93 19,131 5" stroke="#111" fill="none"/><path fill="#333" d="M83.73 26.74L83.71 26.73L83.90 26.91Q85.52 26.90 87.35 26.90L87.50 27.05L87.34 26.89Q89.12 26.88 90.95 26.73L91.14 26.92L90.98 26.76Q90.96 27.50 90.96 28.22L91.02 28.28L90.92 29.52L90.85 29.45Q88.65 29.61 83.90 29.73L83.84 29.67L83.91 29.74Q83.75 35.52 82.60 40.50L82.75 40.65L82.61 40.51Q80.38 41.17 78.90 41.97L78.91 41.99L78.94 42.01Q81.27 35.21 81.01 28.09L80.94 28.03L81.06 28.15Q80.82 21.02 78.15 14.35L78.06 14.26L78.17 14.37Q81.77 16.83 86.53 17.06L86.54 17.07L86.62 17.15Q91.11 17.15 95.26 15.39L95.27 15.41L95.39 15.53Q94.99 16.23 94.76 17.03L94.87 17.14L94.28 18.64L94.28 18.64Q91.75 19.92 88.78 20.07L88.75 20.04L88.75 20.04Q85.79 20.16 82.93 19.44L82.90 19.41L82.87 19.38Q83.69 22.90 83.88 26.89ZM95.93 14.74L96.01 14.81L95.99 14.79Q91.42 16.96 86.55 16.66L86.47 16.58L86.61 16.72Q81.11 16.25 77.38 13.39L77.46 13.47L77.43 13.44Q80.31 20.40 80.62 28.01L80.59 27.98L80.64 28.03Q80.99 35.99 78.47 42.77L78.58 42.87L78.51 42.80Q79.04 42.27 80.41 41.62L80.57 41.78L80.46 41.68Q80.32 42.48 79.74 44.00L79.73 43.99L79.74 44.00Q81.96 42.83 84.86 42.34L84.90 42.38L84.89 42.37Q85.57 37.57 85.76 31.86L85.68 31.78L85.81 31.91Q87.47 31.74 89.30 31.74L89.34 31.78L89.44 31.88Q91.08 31.73 92.91 31.92L93.06 32.08L92.99 32.00Q92.86 31.04 92.86 30.13L92.78 30.04L92.79 28.15L92.83 28.19Q92.19 28.43 91.35 28.43L91.21 28.29L91.35 28.43Q91.23 27.43 91.30 26.40L91.38 26.48L91.44 26.53Q89.94 26.60 88.53 26.60L88.62 26.68L88.53 26.60Q87.08 26.55 85.70 26.51L85.76 26.56L85.68 24.36L85.63 24.31Q85.72 23.32 85.60 22.26L85.62 22.28L85.65 22.30Q86.60 22.34 87.59 22.34L87.51 22.26L87.58 22.33Q92.37 22.36 95.98 20.46L95.93 20.40L95.96 20.43Q96.36 18.51 97.27 15.88L97.31 15.92L97.41 16.02Q95.94 16.69 95.14 17.03L95.24 17.13L95.21 17.09Q95.51 16.37 96.01 14.81Z"/><path d="M3 8 C79 43,90 37,130 22" stroke="#888" fill="none"/></svg>