<svg xmlns="http://www.w3.org/2000/svg" width="150" height="50" viewBox="0,0,150,50"><path fill="#222" d="M41.31 27.69L41.28 27.66L41.38 27.77Q37.87 27.68 36.76 31.03L36.64 30.90L36.74 31.01Q36.46 32.18 36.35 33.25L36.29 33.19L36.25 33.15Q35.99 35.13 36.98 36.46L37.02 36.51L37.03 36.52Q38.43 37.76 40.91 37.80L40.85 37.74L40.85 37.75Q42.62 37.73 44.03 36.58L43.98 36.53L44.11 36.66Q45.50 35.51 45.50 33.72L45.39 33.60L45.41 33.63Q45.55 33.42 45.48 33.04L45.43 33.00L45.45 33.02Q45.12 27.78 41.31 27.70ZM41.18 40.13L41.16 40.11L41.26 40.21Q37.45 40.44 35.67 38.42L35.57 38.32L35.61 38.37Q35.42 39.44 34.96 40.81L35.00 40.84L34.87 40.71Q32.96 41.51 31.71 42.08L31.70 42.07L31.74 42.11Q33.90 36.13 33.90 29.62L33.92 29.63L33.97 29.69Q33.89 21.30 30.46 13.46L30.45 13.45L30.51 13.51Q32.73 14.74 34.06 15.20L34.16 15.29L34.23 15.37Q36.27 21.94 36.42 27.76L36.43 27.76L36.47 27.81Q37.94 25.16 41.67 25.20L41.65 25.18L41.55 25.08Q44.92 25.25 46.40 27.12L46.25 26.96L46.41 27.13Q48.13 29.30 48.28 32.88L48.32 32.92L48.28 32.88Q48.40 34.10 48.33 35.70L48.23 35.61L48.25 35.63Q48.24 37.10 47.36 38.24L47.32 38.20L47.34 38.22Q45.55 39.89 41.21 40.16ZM46.71 42.69L46.82 42.80L46.74 42.72Q48.18 42.68 49.66 41.99L49.81 42.14L49.78 42.11Q50.91 40.84 50.95 38.90L50.91 38.86L50.87 38.82Q50.96 38.42 50.81 37.24L50.72 37.15L50.76 37.19Q50.65 36.47 50.54 35.56L50.61 35.63L50.51 35.53Q49.68 30.74 48.12 28.69L48.07 28.63L48.13 28.69Q48.05 28.58 47.26 27.70L47.31 27.76L47.38 27.83Q47.02 27.43 46.49 26.63L46.62 26.76L46.48 26.62Q44.97 24.77 41.62 24.81L41.71 24.90L41.66 24.85Q39.50 24.78 38.24 25.39L38.23 25.38L38.40 25.55Q38.01 20.97 37.40 17.77L37.27 17.64L37.42 17.80Q36.69 17.63 35.20 17.25L35.06 17.11L35.23 17.28Q34.97 16.41 34.52 14.97L34.62 15.07L34.47 14.92Q32.19 14.28 29.94 12.72L29.80 12.57L29.88 12.65Q33.66 20.85 33.66 29.65L33.68 29.66L33.69 29.67Q33.55 36.50 31.08 42.71L31.06 42.69L31.10 42.72Q31.93 42.53 33.26 41.96L33.25 41.95L33.17 41.86Q32.97 42.66 32.36 44.18L32.36 44.18L32.25 44.07Q34.30 43.22 37.08 42.69L37.17 42.78L37.46 40.86L37.45 40.85Q39.80 42.59 46.72 42.71ZM42.87 29.94L43.04 30.12L42.86 29.93Q43.93 29.97 44.46 30.35L44.42 30.31L44.46 30.35Q44.84 30.93 45.07 32.94L45.11 32.98L45.09 32.97Q45.25 34.80 44.00 36.11L43.94 36.06L44.06 36.17Q42.86 37.55 40.92 37.43L40.73 37.25L40.78 37.29Q39.83 37.41 38.34 36.91L38.34 36.91L38.38 36.95Q38.22 36.53 38.22 35.99L38.25 36.02L38.26 36.04Q38.10 32.79 39.66 31.19L39.72 31.24L39.70 31.26L39.71 31.27Q41.25 30.00 43.00 30.08Z"/><path fill="#333" d="M27.08 23.27L27.16 23.35L27.03 23.21Q25.39 19.22 19.19 19.41L19.09 19.31L19.21 19.43Q14.85 19.60 12.87 21.05L12.85 21.03L12.80 20.98Q10.48 22.80 10.48 26.91L10.41 26.85L10.48 28.79L10.44 28.74Q10.42 37.55 19.44 37.55L19.40 37.51L19.34 37.45Q21.45 37.51 22.94 36.71L22.92 36.69L22.96 36.73Q24.87 35.79 24.71 33.92L24.57 33.77L24.64 33.85Q24.49 31.79 20.80 30.88L20.80 30.88L18.78 30.80L18.77 30.79Q17.91 30.88 16.95 30.92L16.86 30.82L16.91 30.88Q16.84 29.85 16.80 27.95L16.80 27.95L16.84 27.98Q24.42 27.91 28.61 27.57L28.67 27.64L28.75 27.71Q28.65 28.49 28.65 29.29L28.61 29.25L28.66 29.30Q28.72 30.16 28.75 30.96L28.65 30.85L28.64 30.84Q27.56 30.87 27.56 30.87L27.56 30.87L27.50 30.81Q26.14 30.82 26.52 30.82L26.67 30.96L26.50 30.80Q27.67 32.50 28.05 34.48L28.05 34.48L28.05 34.48Q28.22 35.25 28.22 35.71L28.07 35.56L28.07 35.56Q28.24 40.38 19.44 40.38L19.33 40.26L19.47 40.40Q12.27 40.32 9.68 38.22L9.69 38.24L9.66 38.20Q7.72 35.89 7.72 30.82L7.60 30.70L7.65 30.75Q7.67 29.70 7.51 27.00L7.56 27.05L7.60 27.08Q7.35 24.63 7.39 23.26L7.48 23.35L7.44 23.31Q7.63 20.53 9.00 18.93L8.93 18.86L8.98 18.91Q11.39 16.71 16.26 16.52L16.33 16.59L18.94 16.46L19.03 16.54Q22.00 16.32 25.43 16.74L25.43 16.74L25.46 16.77Q29.36 17.40 30.31 20.63L30.14 20.46L30.14 20.46Q29.12 21.39 27.03 23.21ZM28.40 25.38L28.72 25.59L28.59 25.46Q29.83 24.41 31.69 22.43L31.62 22.36L31.69 22.43Q31.32 21.42 30.34 19.71L30.41 19.78L30.46 19.83Q29.12 17.00 25.31 16.36L25.42 16.47L25.44 16.49Q23.22 16.29 18.92 15.98L19.04 16.10L16.26 16.14L16.26 16.14Q11.12 16.37 8.53 18.35L8.46 18.28L8.49 18.31Q7.10 19.92 6.98 23.00L6.98 23.00L7.07 23.09Q7.03 22.59 7.26 28.08L7.35 28.16L7.31 28.13Q7.33 29.48 7.40 32.22L7.29 32.11L7.45 32.26Q7.48 36.56 9.23 38.50L9.24 38.50L9.37 38.64Q9.64 39.37 10.52 40.24L10.62 40.34L10.53 40.26Q13.45 42.14 18.97 42.49L19.06 42.58L21.91 42.72L21.98 42.80Q23.45 42.78 25.46 42.66L25.48 42.68L25.56 42.76Q26.91 42.59 29.01 42.06L29.04 42.09L29.08 42.13Q30.93 41.54 30.89 39.22L30.88 39.21L30.93 39.27Q31.03 38.11 29.97 35.33L29.79 35.15L29.97 35.33Q29.63 34.38 29.10 33.58L28.97 33.45L29.09 33.58Q29.67 33.59 30.85 33.78L30.91 33.83L30.79 33.72Q30.45 30.06 30.48 29.37L30.47 29.36L30.66 29.55Q30.09 29.36 29.67 29.32L29.86 29.51L29.77 29.42Q29.30 29.30 28.92 29.37L28.93 29.38L29.07 29.52Q28.92 28.26 28.99 27.20L29.16 27.36L29.00 27.20Q22.77 27.75 16.49 27.63L16.42 27.57L16.47 27.62Q16.46 28.48 16.46 29.40L16.52 29.46L16.52 31.21L16.56 31.25Q16.95 31.26 17.37 31.22L17.34 31.19L17.30 31.15Q17.82 31.25 18.28 31.25L18.29 31.26L18.15 31.13Q18.19 31.62 18.23 32.11L18.20 32.09L18.23 32.12Q18.30 32.65 18.26 33.14L18.31 33.18L18.17 33.05Q19.29 33.11 20.32 33.07L20.38 33.13L20.37 33.12Q21.30 33.02 22.33 33.05L22.47 33.20L22.34 33.07Q23.48 33.41 24.35 33.79L24.31 33.75L24.26 33.73L24.38 33.85Q24.56 35.40 22.88 36.31L22.87 36.31L22.79 36.23Q21.03 37.05 19.32 37.05L19.33 37.07L19.34 37.08Q15.54 37.12 13.10 35.37L13.21 35.47L13.21 35.47Q12.24 33.44 12.39 30.89L12.43 30.92L12.27 30.77Q12.68 26.07 14.53 24.07L14.53 24.08L14.40 23.95Q16.24 21.95 20.93 21.64L20.94 21.66L20.99 21.70Q24.66 21.49 26.60 23.28L26.60 23.28L26.68 23.36Q26.63 23.35 26.74 23.54L26.80 23.60L26.89 23.58L26.92 23.60Q27.65 24.45 28.22 25.55L28.14 25.47L28.43 25.42Z"/><path fill="#222" d="M59.53 40.01L59.44 39.92L59.36 39.84Q55.18 39.27 53.36 37.83L53.40 37.87L53.49 37.96Q51.57 36.43 51.16 33.42L51.27 33.53L51.14 33.40Q51.17 33.09 50.83 28.33L50.79 28.29L50.90 28.40Q50.90 27.19 50.82 25.93L50.78 25.89L50.77 25.88Q50.60 20.83 52.80 19.08L52.92 19.19L52.82 19.10Q55.55 17.06 63.31 16.37L63.24 16.30L63.27 16.33Q64.68 16.26 66.32 16.30L66.15 16.13L66.16 16.14Q66.24 16.22 69.21 16.22L69.25 16.26L69.10 16.11Q70.03 16.20 71.74 16.35L71.68 16.30L71.71 16.33Q71.20 17.26 70.17 20.34L70.29 20.46L70.25 20.42Q68.07 19.12 65.06 19.12L65.17 19.23L65.13 19.18Q64.40 19.21 63.60 19.29L63.62 19.31L63.62 19.31Q58.41 19.65 55.89 21.63L56.01 21.75L56.03 21.77Q53.85 23.21 53.70 26.56L53.76 26.62L53.87 26.73Q53.81 27.32 53.85 28.58L53.79 28.51L53.74 28.46Q53.87 33.32 56.27 35.41L56.37 35.51L56.28 35.42Q58.55 37.46 63.54 37.77L63.49 37.72L63.49 37.72Q66.50 37.76 69.51 35.97L69.58 36.04L69.55 36.01Q70.10 38.70 70.71 40.07L70.86 40.22L70.83 40.19Q68.80 40.52 67.16 40.48L67.11 40.42L66.97 40.28Q62.54 40.27 59.42 39.89ZM74.54 43.63L74.64 43.73L74.49 43.58Q72.73 40.60 72.05 38.01L72.01 37.98L72.15 38.11Q71.66 38.31 70.67 38.69L70.69 38.71L70.60 38.62Q70.24 37.81 70.05 36.97L70.20 37.12L69.82 35.40L69.77 35.36Q66.48 37.40 63.36 37.28L63.41 37.34L63.44 37.37Q59.11 37.11 56.79 35.36L56.88 35.45L56.80 35.37Q55.61 33.50 55.69 30.57L55.70 30.57L55.81 30.68Q55.84 26.07 58.32 23.94L58.43 24.05L58.37 24.00Q60.45 22.04 65.13 21.43L65.14 21.44L65.18 21.48Q65.89 21.28 66.61 21.28L66.74 21.41L66.72 21.38Q69.48 21.37 71.58 22.89L71.57 22.88L71.63 22.94Q72.02 20.71 73.24 17.47L73.29 17.52L73.19 17.42Q73.10 17.59 72.54 17.54L72.50 17.50L72.43 17.42Q71.86 17.35 71.60 17.35L71.70 17.45L71.55 17.30Q71.73 16.76 72.18 15.77L72.26 15.84L72.21 15.79Q72.12 15.93 69.63 15.86L69.53 15.76L69.54 15.77Q66.97 15.61 66.32 15.65L66.34 15.68L66.39 15.73Q55.99 16.17 52.52 18.76L52.50 18.73L52.52 18.76Q50.51 20.59 50.51 24.51L50.37 24.37L50.35 24.35Q50.40 25.51 50.52 28.21L50.50 28.20L50.58 28.28Q50.62 31.74 50.85 33.46L50.87 33.47L50.94 33.54Q51.20 36.55 52.80 38.07L52.95 38.22L52.89 38.16Q53.30 38.76 54.56 39.90L54.65 40.00L54.57 39.92Q57.96 41.82 63.21 42.58L63.13 42.49L63.17 42.54Q69.56 43.45 74.55 43.64Z"/><path d="M6 11 C62 6,76 19,139 12" stroke="#999" fill="none"/><path d="M14 2 C63 32,71 19,135 40" stroke="#444" fill="none"/><path fill="#333" d="M104.98 20.08L104.98 20.07L105.11 20.21Q100.74 20.14 97.05 19.15L97.02 19.12L97.07 19.18Q98.52 23.67 98.71 28.50L98.65 28.44L98.66 28.45Q98.83 33.23 97.61 37.83L97.66 37.88L97.60 37.82Q100.41 37.21 103.91 37.05L104.05 37.19L104.00 37.14Q107.84 36.87 109.63 34.44L109.66 34.47L109.69 34.49Q111.16 32.38 111.35 28.27L111.47 28.39L111.52 28.45Q111.58 26.68 111.13 24.97L111.12 24.96L111.08 24.92Q109.83 20.21 105.11 20.21ZM93.15 42.17L93.15 42.17L93.10 42.11Q95.92 36.37 95.92 29.67L95.95 29.71L96.03 29.78Q96.04 21.26 91.74 14.26L91.69 14.21L91.72 14.24Q97.00 16.93 105.26 17.12L105.32 17.18L105.18 17.05Q114.11 17.29 114.45 24.45L114.50 24.49L114.53 24.53Q114.64 27.23 114.61 28.68L114.44 28.51L114.56 28.63Q114.43 33.26 113.59 35.43L113.50 35.34L113.66 35.49Q113.10 36.46 112.34 37.30L112.39 37.35L112.35 37.31Q111.12 38.97 108.49 39.47L108.39 39.37L108.46 39.44Q106.82 39.66 103.82 39.89L103.84 39.91L103.79 39.87Q97.79 40.45 93.18 42.20ZM111.13 42.10L111.00 41.98L110.98 41.96Q113.74 41.62 115.37 40.14L115.37 40.14L115.43 40.20Q116.64 38.44 116.61 35.70L116.58 35.68L116.66 35.76Q116.66 34.39 116.51 30.88L116.35 30.73L116.09 26.27L116.05 26.24Q115.97 24.06 115.02 21.97L115.01 21.96L114.94 21.90Q114.45 20.98 113.76 20.33L113.77 20.34L113.63 20.05L113.69 20.10Q112.08 17.24 107.66 16.86L107.71 16.91L107.61 16.81Q104.91 16.66 97.91 15.93L97.83 15.86L97.89 15.92Q94.65 15.49 90.95 13.47L91.01 13.53L90.94 13.47Q95.69 20.76 95.69 29.52L95.75 29.58L95.73 29.56Q95.81 36.64 92.46 42.81L92.49 42.84L92.40 42.75Q93.18 42.58 94.51 42.08L94.44 42.02L94.54 42.12Q94.15 42.90 93.27 44.39L93.19 44.30L93.23 44.34Q96.28 43.28 99.63 42.78L99.67 42.83L99.62 42.77Q101.71 42.47 105.36 42.35L105.35 42.33L105.32 42.31Q109.15 42.14 110.98 41.95ZM111.14 28.44L111.14 28.44L111.04 28.35Q110.65 36.33 103.95 36.71L104.02 36.78L104.06 36.83Q102.00 36.81 99.94 37.08L100.05 37.19L100.09 37.23Q100.69 33.26 100.69 29.61L100.64 29.56L100.75 29.67Q100.64 25.87 99.92 22.02L99.91 22.01L99.99 22.09Q102.18 22.38 106.87 22.38L107.03 22.54L106.89 22.41Q108.25 22.24 109.88 23.19L110.01 23.32L110.02 23.32Q111.14 25.44 110.99 28.30Z"/><path fill="#111" d="M125.66 40.21L125.59 40.14L123.47 40.31L123.47 40.30Q122.96 40.26 121.99 40.31L121.95 40.27L122.03 40.35Q121.14 40.48 120.64 40.48L120.59 40.43L120.57 40.42Q119.00 40.48 117.97 39.64L117.85 39.52L117.97 39.64Q118.77 38.54 120.41 36.41L120.37 36.37L120.33 36.32Q121.53 37.83 123.74 37.60L123.76 37.63L123.90 37.76Q124.72 37.56 125.37 36.91L125.33 36.87L125.38 36.93Q125.99 36.24 125.87 35.36L125.81 35.30L125.94 35.42Q125.79 30.78 125.86 26.21L125.85 26.20L125.88 26.23Q125.99 21.70 126.53 17.09L126.49 17.06L126.35 16.92Q128.34 16.78 130.48 15.75L130.46 15.74L130.61 15.89Q128.65 22.53 128.65 29.76L128.55 29.66L128.66 29.77Q128.59 33.24 129.05 36.75L129.05 36.75L129.02 36.72Q129.26 37.23 129.26 37.57L129.28 37.58L129.20 37.50Q129.19 38.07 128.96 38.60L128.96 38.60L128.89 38.53Q128.33 39.80 125.52 40.07ZM130.56 43.02L130.42 42.88L130.83 42.94L131.16 42.86L131.34 42.65L131.40 42.72Q131.67 42.42 131.75 42.30L131.73 42.28L131.77 42.33Q132.03 41.21 131.77 40.23L131.61 40.07L131.66 40.12Q130.27 34.28 130.54 27.92L130.61 27.99L130.57 27.95Q130.90 21.93 132.69 16.03L132.64 15.97L132.58 15.92Q131.75 16.61 130.50 17.33L130.51 17.35L130.42 17.25Q130.73 16.62 131.15 15.09L131.18 15.13L131.16 15.10Q128.58 16.37 125.92 16.67L125.94 16.70L126.04 16.80Q125.61 21.13 125.53 26.08L125.53 26.07L125.47 26.01Q125.39 31.91 125.46 35.33L125.56 35.43L125.45 35.32Q125.57 37.15 123.82 37.30L123.79 37.28L123.87 37.35Q122.19 37.50 120.52 35.87L120.35 35.70L120.45 35.80Q118.46 38.38 117.51 39.94L117.49 39.92L117.39 39.82Q118.07 40.50 119.09 40.72L119.06 40.69L119.14 40.78Q119.09 40.95 118.82 41.18L118.76 41.11L118.69 41.05Q120.20 42.06 122.18 42.32L122.08 42.22L122.12 42.27Q122.61 42.42 125.90 42.72L125.82 42.64L125.93 42.74Q129.07 42.89 130.44 42.89Z"/><path fill="#444" d="M87.45 40.98L87.38 40.91L87.44 40.96Q86.08 39.22 84.78 36.14L84.88 36.23L82.63 30.98L82.73 31.08Q81.02 34.96 80.41 36.26L80.58 36.43L80.52 36.37Q78.98 39.20 77.38 41.10L77.40 41.13L77.41 41.14Q77.03 41.13 76.26 41.25L76.36 41.34L76.35 41.34Q76.22 33.78 70.40 27.85L70.47 27.92L70.58 28.03Q68.67 26.04 66.66 24.56L66.65 24.55L66.80 24.70Q68.51 25.12 70.37 25.42L70.35 25.40L70.42 25.46Q76.45 30.40 77.90 36.64L77.98 36.72L78.01 36.75Q78.92 34.92 80.10 31.72L79.94 31.56L79.95 31.57Q81.34 27.86 81.91 26.57L82.04 26.70L83.36 26.60L83.31 26.56Q84.28 28.36 85.46 31.64L85.49 31.67L85.38 31.55Q86.70 35.20 87.35 36.61L87.35 36.61L87.45 36.71Q89.25 30.40 94.73 25.83L94.69 25.79L94.60 25.70Q95.81 25.62 98.55 25.05L98.58 25.08L98.56 25.06Q90.01 31.16 88.83 41.14L88.72 41.03L88.16 41.00L88.10 40.94Q87.81 40.95 87.46 40.99ZM90.48 43.48L92.51 43.63L92.52 43.65Q92.21 42.12 92.21 40.60L92.21 40.59L92.24 40.63Q92.15 37.30 93.56 34.06L93.47 33.98L93.58 34.08Q95.44 29.44 99.55 26.35L99.64 26.44L99.74 26.54Q98.46 26.74 96.59 27.09L96.55 27.05L96.63 27.12Q98.56 25.44 99.85 24.52L99.84 24.51L97.39 25.02L97.33 24.96Q96.16 25.24 94.83 25.40L94.73 25.29L94.77 25.34Q89.51 29.48 87.57 34.51L87.58 34.52L87.59 34.53Q87.01 32.43 85.64 28.16L85.61 28.13L85.61 28.13Q85.43 28.30 85.16 28.30L85.03 28.16L84.53 28.19L84.51 28.18Q84.44 27.91 83.64 26.16L83.61 26.13L81.59 26.17L81.61 26.19Q80.66 29.01 78.57 34.64L78.55 34.63L78.61 34.69Q77.12 30.83 74.03 27.56L74.06 27.58L74.09 27.61Q73.82 27.61 73.52 27.58L73.57 27.62L72.96 27.48L73.05 27.56Q72.17 26.72 70.38 25.12L70.24 24.98L70.28 25.02Q67.27 24.52 65.59 24.03L65.59 24.02L65.50 23.94Q76.23 31.39 75.85 41.71L75.86 41.72L75.87 41.73Q76.01 41.68 76.37 41.64L76.48 41.75L76.48 41.74Q76.87 41.73 77.06 41.73L77.05 41.73L77.05 41.73Q76.97 41.49 77.16 43.59L77.13 43.56L79.16 43.49L79.08 43.41Q81.71 40.64 83.96 34.89L84.02 34.96L83.83 34.77Q85.37 38.66 87.23 41.33L87.18 41.27L87.34 41.44Q87.64 41.39 87.90 41.41L87.94 41.44L87.94 41.44Q88.15 41.40 88.41 41.40L88.34 41.33L90.53 43.52Z"/></svg>