<svg xmlns="http://www.w3.org/2000/svg" width="150" height="50" viewBox="0,0,150,50"><path fill="#444" d="M82.64 30.49L82.52 30.37L82.56 30.41Q79.14 36.81 75.71 40.77L75.76 40.82L75.59 40.65Q73.89 41.23 71.45 42.11L71.46 42.11L71.37 42.03Q76.30 36.44 81.05 28.03L81.13 28.10L81.12 28.09Q76.42 21.04 70.45 14.65L70.39 14.58L70.36 14.56Q73.44 15.92 75.72 16.42L75.59 16.29L75.73 16.43Q80.22 21.48 82.65 25.44L82.76 25.55L82.78 25.57Q85.31 21.17 89.23 16.75L89.18 16.70L89.24 16.76Q90.85 16.47 94.05 15.71L93.95 15.61L93.99 15.65Q87.89 22.07 84.42 28.01L84.36 27.94L84.36 27.95Q89.69 36.78 94.07 41.35L93.95 41.23L93.90 41.18Q91.46 40.53 89.37 40.30L89.33 40.27L89.36 40.30Q86.52 37.26 82.60 30.45ZM89.14 40.50L89.16 40.51L89.29 40.64Q89.47 40.56 89.93 40.68L90.00 40.74L90.02 40.76Q90.81 41.52 92.33 43.12L92.30 43.08L92.24 43.02Q95.65 43.89 98.70 45.26L98.72 45.27L98.72 45.28Q91.46 38.55 86.36 29.79L86.42 29.86L86.41 29.84Q90.22 23.26 96.12 16.41L96.14 16.43L96.19 16.48Q94.58 16.97 92.41 17.50L92.47 17.56L92.58 17.66Q93.42 16.72 95.17 14.93L95.09 14.85L95.18 14.94Q92.62 15.65 88.93 16.23L89.00 16.29L89.02 16.32Q85.60 20.12 83.01 24.43L83.00 24.42L83.00 24.42Q82.07 22.80 80.89 21.32L80.83 21.26L78.54 18.32L78.21 18.37L78.34 18.50Q78.10 18.41 77.87 18.34L77.86 18.33L77.86 18.33Q77.16 17.48 75.68 15.92L75.66 15.90L75.79 16.03Q71.85 15.02 69.26 13.65L69.22 13.61L69.24 13.62Q75.99 20.91 80.56 27.95L80.67 28.07L80.70 28.09Q76.22 36.29 70.47 42.88L70.43 42.83L70.38 42.79Q71.62 42.05 73.75 41.48L73.93 41.65L72.48 42.94L72.49 42.96Q72.48 42.95 71.15 44.28L71.14 44.27L71.11 44.24Q74.23 43.29 77.39 42.79L77.32 42.73L77.45 42.85Q81.29 38.16 83.87 33.40L83.91 33.44L83.90 33.43Q86.57 37.77 89.27 40.62Z"/><path fill="#111" d="M45.18 40.99L45.14 40.95L45.08 40.89Q43.75 39.18 42.46 36.10L42.57 36.21L40.43 31.07L40.50 31.13Q38.92 35.15 38.31 36.44L38.21 36.34L38.27 36.40Q36.82 39.33 35.22 41.23L35.22 41.24L35.11 41.12Q34.81 41.20 34.04 41.31L34.10 41.36L33.94 41.21Q33.97 33.81 28.14 27.88L28.28 28.01L28.21 27.94Q26.40 26.05 24.38 24.57L24.43 24.62L24.49 24.68Q26.23 25.12 28.10 25.43L28.11 25.45L28.10 25.43Q34.13 30.36 35.57 36.60L35.57 36.59L35.70 36.73Q36.57 34.85 37.75 31.65L37.73 31.63L37.76 31.66Q39.09 27.89 39.66 26.60L39.71 26.65L41.07 26.60L41.06 26.59Q42.02 28.39 43.20 31.66L43.18 31.64L43.03 31.50Q44.37 35.15 45.02 36.56L45.00 36.54L45.10 36.65Q46.93 30.37 52.41 25.80L52.30 25.69L52.40 25.79Q53.50 25.59 56.24 25.02L56.26 25.05L56.41 25.19Q47.72 31.16 46.54 41.14L46.43 41.02L45.86 40.98L45.76 40.88Q45.40 40.83 45.06 40.87ZM48.16 43.44L50.25 43.67L50.23 43.65Q49.76 41.96 49.76 40.43L49.79 40.46L49.86 40.53Q49.76 37.20 51.17 33.96L51.19 33.98L51.29 34.08Q53.29 29.57 57.40 26.49L57.35 26.44L57.29 26.38Q56.12 26.69 54.25 27.03L54.20 26.98L54.32 27.10Q56.24 25.40 57.53 24.49L57.48 24.44L55.00 24.92L55.03 24.96Q53.77 25.14 52.43 25.29L52.50 25.35L52.39 25.25Q47.30 29.55 45.36 34.58L45.35 34.58L45.43 34.65Q44.79 32.49 43.42 28.23L43.35 28.16L43.39 28.20Q43.01 28.16 42.75 28.16L42.84 28.25L42.22 28.17L42.22 28.17Q42.12 27.88 41.32 26.13L41.35 26.16L39.27 26.13L39.25 26.12Q38.29 28.92 36.19 34.55L36.32 34.68L36.22 34.58Q34.99 30.99 31.90 27.71L31.72 27.53L31.78 27.59Q31.61 27.69 31.31 27.65L31.27 27.61L30.77 27.57L30.66 27.46Q29.75 26.58 27.96 24.98L28.07 25.10L28.05 25.08Q24.80 24.34 23.12 23.84L23.20 23.92L23.20 23.92Q33.87 31.32 33.49 41.64L33.63 41.78L33.50 41.65Q33.82 41.78 34.18 41.74L34.20 41.76L34.10 41.65Q34.51 41.67 34.70 41.67L34.77 41.73L34.59 41.56Q34.73 41.54 34.92 43.64L34.80 43.52L36.82 43.44L36.81 43.43Q39.47 40.68 41.72 34.94L41.73 34.95L41.54 34.76Q43.11 38.69 44.98 41.36L45.00 41.38L45.02 41.40Q45.24 41.28 45.50 41.29L45.60 41.39L45.59 41.38Q45.73 41.27 46.00 41.27L46.01 41.28L48.10 43.37Z"/><path d="M4 36 C80 34,62 29,147 40" stroke="#666" fill="none"/><path d="M2 13 C77 38,65 28,134 15" stroke="#666" fill="none"/><path fill="#333" d="M18.29 19.64L18.33 19.67L16.81 19.83L16.66 19.68Q14.46 19.84 14.23 21.86L14.26 21.89L14.22 21.84Q14.17 22.59 14.21 23.58L14.13 23.51L14.12 23.50Q14.30 25.58 15.56 26.92L15.52 26.88L15.51 26.87Q16.75 28.19 18.66 28.03L18.60 27.98L18.61 27.98Q20.65 27.82 21.41 26.91L21.54 27.03L21.54 27.03Q22.65 26.16 22.91 23.92L22.85 23.85L22.82 23.82Q23.14 21.63 21.88 20.79L21.86 20.77L21.73 20.64Q20.86 19.85 18.20 19.54ZM24.36 28.91L24.41 28.95L22.95 31.07L23.14 31.26Q20.41 36.03 16.64 40.10L16.53 40.00L16.65 40.11Q14.85 40.10 12.14 40.90L12.33 41.09L12.33 41.08Q17.49 34.63 20.65 29.83L20.66 29.84L20.79 29.97Q19.67 30.53 18.03 30.60L18.03 30.61L18.12 30.69Q15.09 30.82 13.56 28.84L13.46 28.74L13.51 28.78Q12.29 27.19 11.19 22.62L11.11 22.54L11.24 22.67Q11.11 22.09 10.96 21.16L11.06 21.25L11.12 21.31Q10.84 20.26 10.84 19.80L10.81 19.77L10.89 19.85Q10.87 18.04 11.93 17.43L11.88 17.37L11.93 17.42Q13.19 16.71 15.06 16.71L15.15 16.79L15.11 16.76Q18.29 16.74 18.29 16.74L18.33 16.78L18.16 16.61Q20.46 16.78 21.71 16.97L21.72 16.97L21.73 16.98Q23.88 17.26 24.79 17.76L24.76 17.73L24.78 17.75Q26.02 18.38 26.21 20.13L26.33 20.25L26.28 20.20Q26.37 20.52 26.18 23.18L26.09 23.09L26.07 23.07Q25.75 25.27 25.52 26.11L25.52 26.10L25.50 26.08Q25.11 27.49 24.35 28.90ZM26.24 31.28L26.22 31.25L26.34 31.38Q27.15 28.99 27.68 24.69L27.68 24.69L27.76 24.76Q28.07 22.60 28.04 21.73L27.94 21.63L27.95 21.65Q27.88 19.75 26.70 18.83L26.76 18.90L26.38 18.71L26.43 18.75Q26.27 18.09 25.35 17.45L25.32 17.41L25.37 17.46Q22.98 16.37 18.18 16.21L18.15 16.18L18.29 16.32Q17.28 16.27 14.85 16.27L14.78 16.21L14.76 16.18Q13.02 16.19 11.53 16.88L11.60 16.94L11.57 16.91Q10.39 17.68 10.47 19.50L10.51 19.55L10.42 19.46Q10.70 20.46 10.89 22.48L10.91 22.49L10.96 22.54Q11.53 25.13 11.79 25.97L11.70 25.88L11.86 26.04Q12.42 27.89 13.37 29.18L13.35 29.16L13.39 29.20Q13.52 29.41 13.90 29.79L14.03 29.91L13.92 29.81Q14.16 30.24 14.81 31.15L14.87 31.22L14.77 31.11Q16.35 32.58 18.30 32.77L18.24 32.72L18.21 32.68Q16.45 35.49 14.89 37.40L14.92 37.43L11.18 41.68L11.29 41.79Q13.46 40.95 15.09 40.61L15.10 40.62L15.14 40.66Q14.31 41.47 12.75 43.18L12.71 43.14L12.84 43.27Q15.94 42.37 19.06 42.33L18.88 42.15L18.98 42.25Q21.20 39.56 25.54 32.33L25.60 32.39L25.66 32.52L25.71 32.58Q25.85 31.72 26.19 31.23ZM20.19 22.00L20.22 22.02L20.24 22.05Q20.87 21.95 21.33 22.06L21.26 22.00L21.21 21.94Q21.85 22.06 22.23 22.17L22.34 22.28L22.23 22.17Q22.48 22.68 22.56 23.10L22.42 22.96L22.42 22.96Q22.52 23.41 22.40 23.79L22.49 23.87L22.43 23.81Q22.39 25.52 21.21 26.63L21.23 26.65L21.29 26.71Q20.24 27.64 18.60 27.60L18.76 27.76L18.75 27.74Q18.29 27.71 16.77 27.40L16.72 27.35L16.67 27.30Q16.51 26.49 16.51 25.77L16.42 25.69L16.48 25.74Q16.47 25.54 16.47 25.31L16.38 25.22L16.47 25.32Q16.43 23.07 18.71 22.27L18.72 22.27L18.68 22.23Q19.30 21.94 20.14 21.94Z"/><path fill="#222" d="M55.77 19.19L55.68 19.09L55.79 19.21Q56.80 23.57 56.96 26.77L57.12 26.93L56.96 26.77Q57.55 26.91 61.93 27.02L61.85 26.94L62.02 27.11Q64.54 27.12 64.92 23.65L64.83 23.57L64.83 23.57Q65.06 21.85 64.14 20.94L64.17 20.96L64.06 20.85Q62.92 20.10 60.94 19.94L60.77 19.78L60.90 19.90Q57.72 19.73 55.85 19.27ZM57.09 28.74L57.14 28.78L57.22 28.86Q57.32 34.79 55.53 40.72L55.61 40.80L55.62 40.82Q54.39 41.14 51.80 42.17L51.80 42.17L51.65 42.02Q54.45 35.49 54.11 28.03L54.28 28.21L54.26 28.19Q53.96 20.84 50.65 14.33L50.66 14.35L50.60 14.28Q55.49 17.12 62.46 17.12L62.35 17.01L62.37 17.03Q68.07 17.10 68.34 20.64L68.37 20.67L68.29 20.59Q68.33 21.17 68.26 21.77L68.33 21.85L68.24 22.98L68.17 22.91Q67.37 26.86 65.24 28.58L65.34 28.69L65.26 28.60Q64.44 29.27 63.41 29.27L63.45 29.30L60.84 29.28L60.84 29.28Q66.50 36.58 71.03 41.15L71.02 41.13L70.91 41.02Q68.78 40.35 65.85 40.00L65.87 40.03L65.79 39.94Q62.12 36.08 57.21 28.85ZM65.72 40.37L65.72 40.37L65.94 40.29L67.23 41.58L67.37 41.71Q67.86 42.17 68.51 42.78L68.52 42.79L68.53 42.80Q72.03 43.37 75.61 45.23L75.65 45.27L75.70 45.33Q68.75 38.56 63.34 31.63L63.39 31.68L65.08 31.61L65.01 31.54Q68.04 31.49 69.37 26.96L69.54 27.14L69.46 27.05Q70.24 24.94 70.24 22.23L70.17 22.16L70.21 22.21Q70.05 19.76 68.34 19.12L68.44 19.22L68.39 19.17Q68.28 18.80 67.71 18.11L67.74 18.14L67.66 18.06Q66.01 16.64 62.36 16.57L62.45 16.66L62.34 16.54Q54.58 16.51 49.89 13.50L49.93 13.53L49.77 13.38Q53.52 20.22 53.87 27.91L53.94 27.98L53.89 27.93Q54.29 35.95 51.17 42.80L51.24 42.86L51.07 42.69Q52.35 42.15 53.15 41.85L53.18 41.87L52.22 44.19L52.19 44.16Q55.02 43.22 57.68 42.73L57.72 42.76L57.62 42.66Q58.87 37.51 59.06 32.30L59.12 32.36L59.16 32.40Q62.52 37.20 65.68 40.33ZM64.43 22.41L64.49 22.46L64.47 22.44Q64.50 22.70 64.50 23.04L64.44 22.99L64.44 23.56L64.61 23.73Q64.43 24.65 63.75 25.61L63.75 25.61L63.85 25.70Q63.22 26.44 62.30 26.63L62.24 26.57L62.32 26.66Q62.15 26.75 60.55 26.78L60.56 26.79L60.48 26.71Q59.82 26.67 58.98 26.55L59.10 26.67L59.04 26.61Q58.91 25.07 58.57 22.02L58.68 22.14L58.64 22.10Q59.98 22.22 60.66 22.22L60.64 22.19L60.77 22.32Q62.59 22.32 64.53 22.51Z"/><path fill="#222" d="M134.20 34.79L134.18 34.78L134.07 34.67Q134.06 38.23 130.90 39.53L130.85 39.48L130.90 39.53Q129.10 40.44 124.69 40.59L124.64 40.54L124.65 40.55Q119.77 40.58 117.52 39.40L117.61 39.49L117.66 39.54Q115.69 38.10 115.84 34.75L115.82 34.73L115.91 34.82Q115.90 34.16 116.09 32.18L116.16 32.26L116.11 32.20Q116.22 30.60 116.22 29.61L116.33 29.72L116.34 29.73Q116.18 21.58 112.00 14.16L112.09 14.25L112.10 14.26Q113.23 14.89 116.20 15.96L116.22 15.98L116.11 15.87Q118.99 22.60 118.99 29.98L119.11 30.10L119.11 30.10Q119.10 30.70 119.00 31.88L118.99 31.86L118.99 31.86Q118.83 32.98 118.83 33.59L118.86 33.62L118.82 33.58Q118.98 36.02 120.54 37.01L120.38 36.86L120.43 36.91Q122.07 37.71 125.04 37.71L125.01 37.68L125.12 37.79Q127.61 37.65 129.24 36.47L129.41 36.63L129.30 36.52Q131.25 35.27 131.09 32.76L131.08 32.74L131.07 32.73Q130.92 31.29 130.92 29.96L130.98 30.01L131.01 30.05Q130.82 22.81 133.22 16.30L133.39 16.48L135.41 15.75L135.43 15.78Q136.55 15.63 137.65 15.18L137.51 15.03L137.62 15.15Q133.91 22.29 133.91 29.87L133.85 29.80L133.85 29.81Q133.75 30.54 133.88 32.17L133.90 32.20L133.90 32.19Q134.06 33.86 134.06 34.66ZM136.15 35.49L136.20 35.54L136.34 35.68Q135.41 30.67 136.13 25.57L136.03 25.48L136.07 25.51Q136.80 20.31 139.20 15.93L139.22 15.95L139.31 16.04Q138.61 16.25 137.16 16.90L137.06 16.79L137.20 16.94Q137.53 16.04 138.32 14.48L138.34 14.50L138.39 14.55Q134.88 15.72 132.98 16.06L132.90 15.99L132.98 16.07Q130.66 22.62 130.66 29.89L130.63 29.86L130.70 29.93Q130.65 31.24 130.72 32.65L130.68 32.61L130.70 32.63Q130.77 34.95 128.98 36.17L128.96 36.14L128.99 36.18Q127.54 37.27 125.03 37.31L125.15 37.43L125.08 37.37Q122.19 37.29 120.74 36.53L120.80 36.59L120.81 36.60Q120.66 36.03 120.58 35.57L120.57 35.56L120.68 35.67Q120.68 35.21 120.79 34.72L120.69 34.61L120.75 34.67Q120.99 32.36 120.99 30.04L121.00 30.05L120.99 30.04Q121.03 24.25 119.51 18.35L119.55 18.40L119.42 18.27Q118.65 18.11 117.24 17.76L117.28 17.80L117.26 17.79Q116.88 16.49 116.42 15.57L116.41 15.56L116.42 15.57Q113.65 14.75 111.26 13.38L111.37 13.49L111.43 13.55Q116.02 21.11 116.02 29.83L115.96 29.76L115.91 29.72Q115.86 31.31 115.71 33.02L115.88 33.19L115.74 33.05Q115.49 35.43 115.57 36.61L115.68 36.73L115.55 36.59Q115.86 38.69 117.11 39.83L117.04 39.76L117.03 39.75Q118.02 42.22 122.66 42.60L122.60 42.54L122.70 42.64Q124.81 42.81 126.94 42.88L126.86 42.80L126.99 42.93Q132.21 42.98 134.99 42.02L135.00 42.03L135.13 42.16Q136.57 41.13 136.57 39.07L136.63 39.13L136.64 39.14Q136.70 38.06 136.24 35.59Z"/><path fill="#333" d="M102.55 29.73L102.45 29.63L102.58 29.76Q98.38 29.56 97.80 32.60L97.75 32.55L97.75 32.55Q97.67 33.72 97.86 34.60L97.70 34.44L97.85 34.59Q97.83 35.33 98.28 36.74L98.17 36.63L98.30 36.75Q99.27 39.82 102.59 39.67L102.65 39.73L102.73 39.81Q104.67 39.82 106.01 38.25L106.00 38.25L105.96 38.21Q107.31 36.85 107.31 34.80L107.14 34.63L107.12 34.61Q107.47 34.23 107.32 33.17L107.25 33.11L107.14 32.99Q107.24 32.25 106.82 31.57L106.73 31.48L106.72 31.47Q105.03 29.74 102.44 29.63ZM107.31 48.12L107.48 48.30L107.39 48.20Q105.56 48.77 97.49 49.15L97.56 49.22L97.39 49.06Q95.83 49.24 94.19 48.40L94.22 48.44L94.08 48.30Q95.04 47.47 96.87 45.68L96.81 45.62L96.80 45.61Q99.20 46.64 101.29 46.45L101.23 46.38L101.22 46.38Q104.16 46.15 105.00 45.89L105.10 45.99L105.05 45.94Q107.21 45.17 107.21 43.38L107.26 43.43L107.28 43.45Q107.28 43.23 107.21 43.00L107.25 43.03L107.23 41.53L107.12 41.42Q107.14 40.68 107.14 39.88L107.11 39.86L107.08 39.83Q105.74 42.10 102.35 42.10L102.33 42.08L102.40 42.15Q98.46 42.09 96.82 39.88L96.74 39.80L96.82 39.88Q95.67 38.31 94.87 33.89L94.91 33.93L94.89 33.92Q94.66 32.46 94.66 31.06L94.52 30.92L94.62 31.02Q94.53 29.14 95.44 28.15L95.48 28.18L95.57 28.28Q97.29 26.91 101.93 26.91L101.80 26.77L103.69 27.11L103.66 27.07Q106.85 27.41 108.18 29.35L108.21 29.38L108.15 29.32Q108.38 28.53 108.80 26.89L108.80 26.88L108.69 26.78Q110.60 26.47 112.35 25.75L112.37 25.77L112.25 25.65Q109.59 31.75 109.59 38.98L109.64 39.03L109.59 38.99Q109.74 41.80 110.12 44.43L110.11 44.41L110.07 44.38Q110.15 44.95 110.07 45.64L110.18 45.74L110.20 45.76Q109.90 47.02 108.68 47.78L108.72 47.82L108.79 47.90Q108.19 48.06 107.36 48.17ZM110.33 51.11L110.47 51.24L110.31 51.08Q111.94 51.31 112.70 50.35L112.62 50.28L112.69 50.35Q113.05 49.41 112.94 48.69L112.90 48.66L112.86 48.61Q112.68 47.90 112.49 47.14L112.63 47.27L112.54 47.19Q111.36 42.01 111.70 36.75L111.66 36.71L111.75 36.81Q111.96 31.23 114.09 26.39L114.16 26.46L112.09 27.43L112.11 27.46Q112.30 26.81 112.53 26.24L112.60 26.30L113.03 25.10L113.00 25.07Q110.64 26.02 108.43 26.44L108.53 26.54L108.49 26.50Q108.04 27.23 107.89 28.26L107.99 28.36L107.91 28.28Q105.85 26.41 101.82 26.41L101.82 26.42L100.12 26.47L100.02 26.36Q96.84 26.42 95.16 27.83L95.08 27.74L95.20 27.87Q94.16 28.73 94.20 30.64L94.34 30.78L94.20 30.64Q94.37 33.25 95.40 37.51L95.45 37.56L95.35 37.46Q95.89 39.45 97.11 40.86L97.04 40.79L97.39 41.14L97.32 41.07L97.39 41.14Q98.53 43.45 101.12 43.99L101.15 44.02L101.13 44.00Q102.44 44.21 103.89 44.24L103.95 44.31L103.92 44.27Q105.81 44.46 106.88 44.08L106.70 43.90L106.84 44.03Q106.20 45.56 103.53 45.91L103.49 45.86L103.57 45.95Q102.44 46.04 101.76 46.04L101.85 46.12L101.32 45.98L101.33 45.99Q98.58 46.05 96.90 45.10L96.94 45.14L95.09 46.72L95.27 46.90Q94.32 47.62 93.48 48.57L93.50 48.59L93.45 48.54Q94.47 49.10 95.46 49.30L95.53 49.37L94.57 50.15L94.65 50.24Q97.34 51.28 102.97 51.28L102.95 51.27L103.21 51.30L103.26 51.35Q106.77 51.24 110.35 51.12ZM104.44 32.05L104.36 31.96L104.53 32.14Q105.83 32.07 106.75 32.48L106.62 32.35L106.59 32.32Q106.79 32.83 106.86 33.52L106.95 33.60L106.86 33.52Q107.00 33.92 106.96 34.83L106.98 34.85L106.90 34.77Q106.84 36.69 105.74 37.99L105.71 37.95L105.66 37.91Q104.54 39.37 102.63 39.33L102.57 39.27L102.65 39.35Q101.23 39.30 100.39 38.89L100.31 38.80L100.37 38.86Q99.90 37.63 99.86 36.60L99.89 36.63L99.89 36.63Q99.82 32.34 104.43 32.03Z"/></svg>